<svg width="1129" height="225" viewBox="0 0 1129 225" fill="none" xmlns="http://www.w3.org/2000/svg">
<path d="M172.102 149.223L214.358 223.544H129.001L86.2988 149.223H172.102Z" fill="url(#paint0_linear_247_970)"/>
<path d="M214.335 223.557L256.967 149.235L171.633 0.556641H86.2988L214.335 223.557Z" fill="#232323"/>
<path d="M43.6335 74.8594H128.968L43.669 223.538L0.966797 149.217L43.6335 74.8594Z" fill="#232323"/>
<path d="M450.883 71.5932L448.761 94.5226C439.665 76.7221 418.745 67.0676 396.308 67.0676C354.164 67.0676 325.967 97.5396 325.967 144.304C325.967 190.766 351.435 224.557 396.005 224.557C420.261 224.557 438.149 212.79 447.548 197.403L449.974 220.635H484.538V71.5932H450.883ZM446.942 146.114C446.942 172.965 430.266 191.369 404.495 191.369C378.723 191.369 362.957 172.664 362.957 146.114C362.957 119.564 379.026 100.557 404.798 100.557C430.569 100.557 446.942 119.262 446.942 146.114Z" fill="#232323"/>
<path d="M547.475 220.635V180.508L569.305 157.88L608.417 220.635H650.865L595.077 130.727L652.077 71.5932H605.688L547.475 134.046V0.556641H510.788V220.635H547.475Z" fill="#232323"/>
<path d="M775.084 71.5932L772.962 94.5226C763.866 76.7221 742.945 67.0676 720.509 67.0676C678.365 67.0676 650.168 97.5396 650.168 144.304C650.168 190.766 675.636 224.557 720.206 224.557C744.461 224.557 762.35 212.79 771.749 197.403L774.175 220.635H808.739V71.5932H775.084ZM771.143 146.114C771.143 172.965 754.467 191.369 728.695 191.369C702.924 191.369 687.157 172.664 687.157 146.114C687.157 119.564 703.227 100.557 728.998 100.557C754.77 100.557 771.143 119.262 771.143 146.114Z" fill="#232323"/>
<path d="M827.457 175.379C827.457 204.644 851.106 224.557 888.399 224.557C925.389 224.557 951.161 205.851 951.161 175.681C951.161 152.751 938.427 141.287 913.261 135.554L886.277 129.218C873.543 126.201 866.872 120.771 866.872 112.323C866.872 101.16 875.362 94.5226 889.915 94.5226C904.165 94.5226 912.655 102.669 912.958 115.34H948.129C947.826 86.3766 925.086 67.0676 891.431 67.0676C856.867 67.0676 832.005 84.5664 832.005 113.832C832.005 137.666 845.042 150.338 872.027 156.372L899.011 162.708C912.352 165.725 916.293 171.155 916.293 178.698C916.293 189.559 906.894 196.498 889.612 196.498C872.633 196.498 862.931 188.352 862.628 175.379H827.457Z" fill="#232323"/>
<path d="M1008.76 220.635V139.175C1008.76 116.849 1022.4 100.557 1045.75 100.557C1064.55 100.557 1076.98 112.625 1076.98 137.666V220.635H1113.97V128.917C1113.97 90.2988 1094.56 67.0676 1057.57 67.0676C1036.05 67.0676 1018.46 76.4204 1009.06 90.9022V0.556641H971.768V220.635H1008.76Z" fill="#232323"/>
<defs>
<linearGradient id="paint0_linear_247_970" x1="150.587" y1="172.162" x2="174.539" y2="148.97" gradientUnits="userSpaceOnUse">
<stop stop-color="#232323"/>
<stop offset="1" stop-opacity="0.12"/>
</linearGradient>
</defs>
</svg>
