<svg width="1129" height="224" viewBox="0 0 1129 224" fill="none" xmlns="http://www.w3.org/2000/svg">
<path d="M450.987 71.0365L448.865 93.966C439.769 76.1655 418.848 66.511 396.412 66.511C354.268 66.511 326.07 96.983 326.07 143.747C326.07 190.209 351.539 224 396.109 224C420.364 224 438.253 212.234 447.652 196.847L450.077 220.078H484.642V71.0365H450.987ZM447.045 145.557C447.045 172.409 430.37 190.813 404.598 190.813C378.826 190.813 363.06 172.107 363.06 145.557C363.06 119.007 379.13 100 404.901 100C430.673 100 447.045 118.706 447.045 145.557Z" fill="#232323"/>
<path d="M547.578 220.078V179.951L569.408 157.324L608.521 220.078H650.968L595.18 130.17L652.181 71.0365H605.792L547.578 133.489V0H510.892V220.078H547.578Z" fill="#232323"/>
<path d="M775.188 71.0365L773.065 93.966C763.969 76.1655 743.049 66.511 720.612 66.511C678.468 66.511 650.271 96.983 650.271 143.747C650.271 190.209 675.739 224 720.309 224C744.565 224 762.453 212.234 771.853 196.847L774.278 220.078H808.842V71.0365H775.188ZM771.246 145.557C771.246 172.409 754.57 190.813 728.799 190.813C703.027 190.813 687.261 172.107 687.261 145.557C687.261 119.007 703.33 100 729.102 100C754.874 100 771.246 118.706 771.246 145.557Z" fill="#232323"/>
<path d="M827.56 174.822C827.56 204.088 851.21 224 888.503 224C925.493 224 951.264 205.294 951.264 175.124C951.264 152.195 938.53 140.73 913.365 134.998L886.38 128.662C873.646 125.645 866.976 120.214 866.976 111.766C866.976 100.603 875.465 93.966 890.019 93.966C904.269 93.966 912.758 102.112 913.062 114.783H948.232C947.929 85.82 925.189 66.511 891.535 66.511C856.97 66.511 832.108 84.0098 832.108 113.275C832.108 137.11 845.146 149.781 872.13 155.815L899.115 162.151C912.455 165.168 916.397 170.599 916.397 178.141C916.397 189.002 906.998 195.942 889.716 195.942C872.737 195.942 863.034 187.796 862.731 174.822H827.56Z" fill="#232323"/>
<path d="M1008.86 220.078V138.618C1008.86 116.292 1022.51 100 1045.85 100C1064.65 100 1077.08 112.068 1077.08 137.11V220.078H1114.07V128.36C1114.07 89.7421 1094.67 66.511 1057.68 66.511C1036.15 66.511 1018.56 75.8638 1009.16 90.3455V0H971.872V220.078H1008.86Z" fill="#232323"/>
<path d="M171.135 148.666L213.391 222.988H128.034L85.332 148.666H171.135Z" fill="url(#paint0_linear_232_2)"/>
<path d="M213.368 223L256 148.679L170.666 0H85.332L213.368 223Z" fill="#FF414C"/>
<path d="M42.6666 74.3027H128.001L42.7021 222.981L0 148.66L42.6666 74.3027Z" fill="#FF414C"/>
<defs>
<linearGradient id="paint0_linear_232_2" x1="137.824" y1="174.002" x2="177.739" y2="131.888" gradientUnits="userSpaceOnUse">
<stop stop-color="#FF414C"/>
<stop offset="1" stop-color="#FF414C" stop-opacity="0"/>
</linearGradient>
</defs>
</svg>
